<svg xmlns="http://www.w3.org/2000/svg" viewBox="0 0 950 500">
  <!-- Red stripes -->
  <rect width="950" height="500" fill="#b22234"/>
  
  <!-- White stripes -->
  <rect y="38.46" width="950" height="38.46" fill="#fff"/>
  <rect y="115.38" width="950" height="38.46" fill="#fff"/>
  <rect y="192.31" width="950" height="38.46" fill="#fff"/>
  <rect y="269.23" width="950" height="38.46" fill="#fff"/>
  <rect y="346.15" width="950" height="38.46" fill="#fff"/>
  <rect y="423.08" width="950" height="38.46" fill="#fff"/>
  
  <!-- Blue canton -->
  <rect width="380" height="269.23" fill="#3c3b6e"/>
  
  <!-- Stars (simplified 5x6 + 4x5 pattern) -->
  <g fill="#fff">
    <!-- Row 1 (6 stars) -->
    <circle cx="31.67" cy="25.38" r="8"/>
    <circle cx="95" cy="25.38" r="8"/>
    <circle cx="158.33" cy="25.38" r="8"/>
    <circle cx="221.67" cy="25.38" r="8"/>
    <circle cx="285" cy="25.38" r="8"/>
    <circle cx="348.33" cy="25.38" r="8"/>
    
    <!-- Row 2 (5 stars) -->
    <circle cx="63.33" cy="50.77" r="8"/>
    <circle cx="126.67" cy="50.77" r="8"/>
    <circle cx="190" cy="50.77" r="8"/>
    <circle cx="253.33" cy="50.77" r="8"/>
    <circle cx="316.67" cy="50.77" r="8"/>
    
    <!-- Row 3 (6 stars) -->
    <circle cx="31.67" cy="76.15" r="8"/>
    <circle cx="95" cy="76.15" r="8"/>
    <circle cx="158.33" cy="76.15" r="8"/>
    <circle cx="221.67" cy="76.15" r="8"/>
    <circle cx="285" cy="76.15" r="8"/>
    <circle cx="348.33" cy="76.15" r="8"/>
    
    <!-- Row 4 (5 stars) -->
    <circle cx="63.33" cy="101.54" r="8"/>
    <circle cx="126.67" cy="101.54" r="8"/>
    <circle cx="190" cy="101.54" r="8"/>
    <circle cx="253.33" cy="101.54" r="8"/>
    <circle cx="316.67" cy="101.54" r="8"/>
    
    <!-- Row 5 (6 stars) -->
    <circle cx="31.67" cy="126.92" r="8"/>
    <circle cx="95" cy="126.92" r="8"/>
    <circle cx="158.33" cy="126.92" r="8"/>
    <circle cx="221.67" cy="126.92" r="8"/>
    <circle cx="285" cy="126.92" r="8"/>
    <circle cx="348.33" cy="126.92" r="8"/>
    
    <!-- Row 6 (5 stars) -->
    <circle cx="63.33" cy="152.31" r="8"/>
    <circle cx="126.67" cy="152.31" r="8"/>
    <circle cx="190" cy="152.31" r="8"/>
    <circle cx="253.33" cy="152.31" r="8"/>
    <circle cx="316.67" cy="152.31" r="8"/>
    
    <!-- Row 7 (6 stars) -->
    <circle cx="31.67" cy="177.69" r="8"/>
    <circle cx="95" cy="177.69" r="8"/>
    <circle cx="158.33" cy="177.69" r="8"/>
    <circle cx="221.67" cy="177.69" r="8"/>
    <circle cx="285" cy="177.69" r="8"/>
    <circle cx="348.33" cy="177.69" r="8"/>
    
    <!-- Row 8 (5 stars) -->
    <circle cx="63.33" cy="203.08" r="8"/>
    <circle cx="126.67" cy="203.08" r="8"/>
    <circle cx="190" cy="203.08" r="8"/>
    <circle cx="253.33" cy="203.08" r="8"/>
    <circle cx="316.67" cy="203.08" r="8"/>
    
    <!-- Row 9 (6 stars) -->
    <circle cx="31.67" cy="228.46" r="8"/>
    <circle cx="95" cy="228.46" r="8"/>
    <circle cx="158.33" cy="228.46" r="8"/>
    <circle cx="221.67" cy="228.46" r="8"/>
    <circle cx="285" cy="228.46" r="8"/>
    <circle cx="348.33" cy="228.46" r="8"/>
  </g>
</svg>